<svg xmlns="http://www.w3.org/2000/svg" viewBox="0 0 192.62 53.01"><defs><style>.cls-1{stroke:#fff;}.cls-1,.cls-2,.cls-3,.cls-4{stroke-miterlimit:10;}.cls-2{fill:#4b5eab;}.cls-2,.cls-3,.cls-4{stroke:#000;stroke-width:0.5px;}.cls-3{fill:#d6a63a;}.cls-4{fill:none;}</style></defs><title>tortonmind-logo-stroke</title><g id="Layer_2" data-name="Layer 2"><g id="Layer_1-2" data-name="Layer 1"><path class="cls-1" d="M31.78,46.22a17.28,17.28,0,0,0,13-1.27A26,26,0,1,1,51.94,21.1,17.39,17.39,0,1,0,31.78,46.22Z"/><polygon class="cls-2" points="46.28 19.35 46.28 24.41 38.96 24.41 35.75 41.48 30.45 41.48 33.66 24.41 26.22 24.41 26.22 19.35 46.28 19.35"/><path class="cls-2" d="M71.38,28l-2.23,2.23c-1.12-1.57-3.73-.74-5.7.09L61.3,41.48H56l3-15.66h5.3L64.09,27C68.74,24.92,71.38,28,71.38,28Z"/><polygon class="cls-2" points="85.48 25.84 85.48 29.43 81.47 29.43 79.13 41.48 73.83 41.48 76.17 29.43 73.21 29.43 73.21 25.84 76.87 25.84 77.54 22.41 82.84 22.41 82.17 25.84 85.48 25.84"/><path class="cls-2" d="M94.94,41a5.57,5.57,0,0,1-1.41,1,8.12,8.12,0,1,0-7.37-7.37,5.57,5.57,0,0,1,1-1.41A5.49,5.49,0,0,1,94.94,41Z"/><path class="cls-2" d="M46.54,41a5.52,5.52,0,0,0,1.4,1,8.13,8.13,0,1,1,7.37-7.37,5.3,5.3,0,0,0-1-1.41A5.49,5.49,0,0,0,46.54,41Z"/><polygon class="cls-2" points="125.1 25.84 123.61 33.46 123.51 33.56 116.34 41.73 113.05 45.4 115.79 41 110.38 32.27 110.36 32.24 108.58 41.48 103.28 41.48 106.3 25.84 111.6 25.84 117.72 36.49 119.8 25.84 125.1 25.84"/><path class="cls-3" d="M180.74,41.54a7.86,7.86,0,0,0,1.82.15,9.54,9.54,0,0,0,9.81-9.25,9.54,9.54,0,0,0-9.81-9.25,10.19,10.19,0,0,0-2.08.21,9.4,9.4,0,0,1,7.72,9A9.21,9.21,0,0,1,180.74,41.54Z"/><path class="cls-3" d="M154.23,17.82a3.94,3.94,0,1,1-.62-.86,1.95,1.95,0,1,0,.62.86Z"/><polygon class="cls-3" points="175.72 25.84 172.7 41.51 167.4 41.51 161.69 32.39 159.93 41.51 154.63 41.51 157.65 25.84 162.95 25.84 168.55 35.56 170.42 25.84 175.72 25.84"/><polygon class="cls-3" points="175.44 41.48 178.55 25.84 183.85 25.84 180.74 41.48 175.44 41.48"/><line class="cls-4" x1="150.76" y1="25.84" x2="150.76" y2="41.51"/><rect class="cls-3" x="148.76" y="25.84" width="4" height="15.67"/><polygon class="cls-3" points="146.85 41.48 141.55 41.48 139.38 30.08 136.62 33.45 134.63 35.87 133.93 35.09 132.45 33.42 129.65 30.28 129.6 30.22 129.56 30.37 127.37 41.48 122.07 41.48 123.69 33.33 123.79 33.23 130.62 25.76 134.66 21.38 131.06 26.24 134.5 30.88 138.58 25.84 143.88 25.84 146.85 41.48"/></g></g></svg>